<mxfile host="app.diagrams.net" agent="Mozilla/5.0 (Windows NT 10.0; Win64; x64) AppleWebKit/537.36 (KHTML, like Gecko) Chrome/135.0.0.0 Safari/537.36" version="26.2.14">
  <diagram name="Multiple and Symmetric Multiprocessor" id="diagram1">
    <mxGraphModel dx="786" dy="497" grid="1" gridSize="10" guides="1" tooltips="1" connect="1" arrows="1" fold="1" page="1" pageScale="1" pageWidth="850" pageHeight="1100" math="0" shadow="1">
      <root>
        <mxCell id="0" />
        <mxCell id="1" parent="0" />
        <mxCell id="2" value="Multiple Processor" style="text;html=1;fontSize=18;fontStyle=1;" parent="1" vertex="1">
          <mxGeometry x="120" y="20" width="180" height="30" as="geometry" />
        </mxCell>
        <mxCell id="3" value="Master CPU" style="shape=ellipse;fillColor=#ffe6cc;strokeColor=#d79b00;html=1;" parent="1" vertex="1">
          <mxGeometry x="180" y="80" width="60" height="60" as="geometry" />
        </mxCell>
        <mxCell id="4" value="Slave CPU" style="shape=ellipse;fillColor=#fff2cc;strokeColor=#d6b656;html=1;" parent="1" vertex="1">
          <mxGeometry x="100" y="180" width="60" height="60" as="geometry" />
        </mxCell>
        <mxCell id="5" value="Slave CPU" style="shape=ellipse;fillColor=#fff2cc;strokeColor=#d6b656;html=1;" parent="1" vertex="1">
          <mxGeometry x="260" y="180" width="60" height="60" as="geometry" />
        </mxCell>
        <mxCell id="6" style="edgeStyle=orthogonalEdgeStyle;rounded=0;html=1;" parent="1" source="3" target="4" edge="1">
          <mxGeometry relative="1" as="geometry" />
        </mxCell>
        <mxCell id="7" style="edgeStyle=orthogonalEdgeStyle;rounded=0;html=1;" parent="1" source="3" target="5" edge="1">
          <mxGeometry relative="1" as="geometry" />
        </mxCell>
        <mxCell id="8" value="Memory" style="shape=datastore;fillColor=#a20025;strokeColor=#6F0000;html=1;fontColor=#ffffff;" parent="1" vertex="1">
          <mxGeometry x="100" y="280" width="60" height="40" as="geometry" />
        </mxCell>
        <mxCell id="9" value="I/O" style="shape=datastore;fillColor=#60a917;strokeColor=#2D7600;html=1;fontColor=#ffffff;" parent="1" vertex="1">
          <mxGeometry x="260" y="280" width="60" height="40" as="geometry" />
        </mxCell>
        <mxCell id="10" style="edgeStyle=orthogonalEdgeStyle;rounded=0;html=1;" parent="1" source="4" target="8" edge="1">
          <mxGeometry relative="1" as="geometry" />
        </mxCell>
        <mxCell id="11" style="edgeStyle=orthogonalEdgeStyle;rounded=0;html=1;" parent="1" source="5" target="9" edge="1">
          <mxGeometry relative="1" as="geometry" />
        </mxCell>
        <mxCell id="12" value="Symmetric Multiprocessor" style="text;html=1;fontSize=18;fontStyle=1;" parent="1" vertex="1">
          <mxGeometry x="480" y="20" width="240" height="30" as="geometry" />
        </mxCell>
        <mxCell id="13" value="CPU" style="shape=ellipse;fillColor=#dae8fc;strokeColor=#6c8ebf;html=1;" parent="1" vertex="1">
          <mxGeometry x="500" y="80" width="60" height="60" as="geometry" />
        </mxCell>
        <mxCell id="14" value="CPU" style="shape=ellipse;fillColor=#dae8fc;strokeColor=#6c8ebf;html=1;" parent="1" vertex="1">
          <mxGeometry x="580" y="80" width="60" height="60" as="geometry" />
        </mxCell>
        <mxCell id="15" value="CPU" style="shape=ellipse;fillColor=#dae8fc;strokeColor=#6c8ebf;html=1;" parent="1" vertex="1">
          <mxGeometry x="660" y="80" width="60" height="60" as="geometry" />
        </mxCell>
        <mxCell id="16" value="Shared Bus" style="shape=rectangle;fillColor=#cfd8dc;strokeColor=#000000;rounded=1;html=1;" parent="1" vertex="1">
          <mxGeometry x="500" y="160" width="220" height="30" as="geometry" />
        </mxCell>
        <mxCell id="17" style="edgeStyle=orthogonalEdgeStyle;rounded=0;html=1;" parent="1" source="13" target="16" edge="1">
          <mxGeometry relative="1" as="geometry" />
        </mxCell>
        <mxCell id="18" style="edgeStyle=orthogonalEdgeStyle;rounded=0;html=1;" parent="1" source="14" target="16" edge="1">
          <mxGeometry relative="1" as="geometry" />
        </mxCell>
        <mxCell id="19" style="edgeStyle=orthogonalEdgeStyle;rounded=0;html=1;" parent="1" source="15" target="16" edge="1">
          <mxGeometry relative="1" as="geometry" />
        </mxCell>
        <mxCell id="20" value="Memory" style="shape=datastore;fillColor=#a20025;strokeColor=#6F0000;html=1;fontColor=#ffffff;" parent="1" vertex="1">
          <mxGeometry x="530" y="230" width="60" height="40" as="geometry" />
        </mxCell>
        <mxCell id="21" value="I/O" style="shape=datastore;fillColor=#60a917;strokeColor=#2D7600;html=1;fontColor=#ffffff;" parent="1" vertex="1">
          <mxGeometry x="670" y="230" width="60" height="40" as="geometry" />
        </mxCell>
        <mxCell id="22" style="edgeStyle=orthogonalEdgeStyle;rounded=0;html=1;" parent="1" source="16" target="20" edge="1">
          <mxGeometry relative="1" as="geometry" />
        </mxCell>
        <mxCell id="23" style="edgeStyle=orthogonalEdgeStyle;rounded=0;html=1;" parent="1" source="16" target="21" edge="1">
          <mxGeometry relative="1" as="geometry" />
        </mxCell>
      </root>
    </mxGraphModel>
  </diagram>
</mxfile>
